<mxfile host="" modified="2020-06-03T08:53:13.051Z" agent="5.0 (Windows NT 10.0; Win64; x64) AppleWebKit/537.36 (KHTML, like Gecko) Code/1.45.1 Chrome/78.0.3904.130 Electron/7.2.4 Safari/537.36" etag="HsTwDRj9etM991Pu6Zx6" version="13.1.3">
    <diagram id="6hGFLwfOUW9BJ-s0fimq" name="Page-1">
        <mxGraphModel dx="1002" dy="556" grid="1" gridSize="10" guides="1" tooltips="1" connect="1" arrows="1" fold="1" page="1" pageScale="1" pageWidth="827" pageHeight="1169" math="0" shadow="0">
            <root>
                <mxCell id="0"/>
                <mxCell id="1" parent="0"/>
                <mxCell id="19" value="" style="rounded=0;whiteSpace=wrap;html=1;strokeColor=none;" parent="1" vertex="1">
                    <mxGeometry width="830" height="1110" as="geometry"/>
                </mxCell>
                <mxCell id="2" value="Users&lt;br&gt;________________________________&lt;br&gt;&lt;br&gt;id&lt;br&gt;name&lt;br&gt;username&lt;br&gt;email&lt;br&gt;password&lt;br&gt;________________________________&lt;br&gt;&lt;br&gt;Has many Wallets&lt;br&gt;Has many Transactions through Wallets" style="rounded=0;whiteSpace=wrap;html=1;" parent="1" vertex="1">
                    <mxGeometry x="10" y="210" width="250" height="240" as="geometry"/>
                </mxCell>
                <mxCell id="3" value="Wallet&lt;br&gt;________________________________&lt;br&gt;&lt;br&gt;id&lt;br&gt;user_id&lt;br&gt;name&lt;br&gt;type&lt;br&gt;btc_balance&lt;br&gt;usd_balance&lt;br&gt;________________________________&lt;br&gt;&lt;br&gt;Belongs to a User&lt;br&gt;Has many Transactions" style="rounded=0;whiteSpace=wrap;html=1;" parent="1" vertex="1">
                    <mxGeometry x="289" y="210" width="250" height="240" as="geometry"/>
                </mxCell>
                <mxCell id="4" value="Transaction&lt;br&gt;________________________________&lt;br&gt;&lt;br&gt;id&lt;br&gt;wallet_id&lt;br&gt;type&lt;br&gt;wallet&lt;br&gt;amount&lt;br&gt;price&lt;br&gt;________________________________&lt;br&gt;&lt;br&gt;Belongs to a Wallet&lt;br&gt;Belongs to a User through a Wallet" style="rounded=0;whiteSpace=wrap;html=1;" parent="1" vertex="1">
                    <mxGeometry x="570" y="210" width="250" height="240" as="geometry"/>
                </mxCell>
                <mxCell id="6" value="&lt;font style=&quot;font-size: 36px&quot;&gt;Bitcoin Matrix&lt;/font&gt;" style="text;html=1;align=left;verticalAlign=middle;resizable=0;points=[];autosize=1;" parent="1" vertex="1">
                    <mxGeometry x="10" y="30" width="230" height="30" as="geometry"/>
                </mxCell>
                <mxCell id="7" value="Short Description:&amp;nbsp;Paper trading platform for Bitcoin" style="text;html=1;align=left;verticalAlign=middle;resizable=0;points=[];autosize=1;" parent="1" vertex="1">
                    <mxGeometry x="10" y="80" width="290" height="20" as="geometry"/>
                </mxCell>
                <mxCell id="8" value="Long Description:&amp;nbsp;Allows users to create an account and buy/sell Bitcoin using simulated money" style="text;html=1;align=left;verticalAlign=middle;resizable=0;points=[];autosize=1;" parent="1" vertex="1">
                    <mxGeometry x="10" y="100" width="520" height="20" as="geometry"/>
                </mxCell>
                <mxCell id="9" value="&lt;font style=&quot;font-size: 28px&quot;&gt;Models&lt;/font&gt;" style="text;html=1;align=left;verticalAlign=middle;resizable=0;points=[];autosize=1;" parent="1" vertex="1">
                    <mxGeometry x="10" y="170" width="110" height="20" as="geometry"/>
                </mxCell>
                <mxCell id="10" value="&lt;font style=&quot;font-size: 28px&quot;&gt;Controllers&lt;/font&gt;" style="text;html=1;align=left;verticalAlign=middle;resizable=0;points=[];autosize=1;" parent="1" vertex="1">
                    <mxGeometry x="10" y="490" width="150" height="20" as="geometry"/>
                </mxCell>
                <mxCell id="12" value="Users&lt;br&gt;________________________________&lt;br&gt;&lt;div&gt;&lt;br&gt;&lt;/div&gt;&lt;div&gt;get '/login'&lt;br&gt;&lt;/div&gt;&lt;div&gt;post '/login'&lt;/div&gt;&lt;div&gt;get '/signup'&lt;/div&gt;&lt;div&gt;post '/signup'&lt;/div&gt;&lt;div&gt;get '/logout'&lt;/div&gt;&lt;div&gt;get '/users/new'&lt;/div&gt;&lt;div&gt;post '/users'&lt;/div&gt;&lt;div&gt;get '/users/:id'&lt;/div&gt;&lt;div&gt;get '/users/:id/edit'&lt;/div&gt;&lt;div&gt;patch '/users/:id'&lt;/div&gt;&lt;div&gt;delete '/users/:id'&lt;/div&gt;" style="rounded=0;whiteSpace=wrap;html=1;align=center;" parent="1" vertex="1">
                    <mxGeometry x="10" y="523" width="250" height="240" as="geometry"/>
                </mxCell>
                <mxCell id="13" value="&lt;span&gt;Wallet&lt;/span&gt;&lt;br&gt;________________________________&lt;br&gt;&lt;span&gt;&lt;br&gt;get '/wallets'&lt;/span&gt;&lt;br&gt;&lt;span&gt;get '/wallets/new'&lt;/span&gt;&lt;br&gt;&lt;span&gt;post '/wallets'&lt;/span&gt;&lt;br&gt;&lt;span&gt;get '/wallets/:id'&lt;/span&gt;&lt;br&gt;&lt;span&gt;get '/wallets/:id/edit'&lt;/span&gt;&lt;br&gt;&lt;span&gt;patch '/wallets/:id'&lt;/span&gt;&lt;br&gt;&lt;span&gt;delete '/wallets/:id'&lt;br&gt;&lt;/span&gt;get '/wallets/:id/transactions'&lt;span&gt;&lt;br&gt;&lt;/span&gt;" style="rounded=0;whiteSpace=wrap;html=1;" parent="1" vertex="1">
                    <mxGeometry x="288" y="523" width="251" height="240" as="geometry"/>
                </mxCell>
                <mxCell id="14" value="&lt;span&gt;Transaction&lt;/span&gt;&lt;br&gt;&lt;div&gt;________________________________&lt;br&gt;&lt;div&gt;&lt;br&gt;&lt;/div&gt;&lt;div&gt;post '/transactions'&lt;/div&gt;&lt;div&gt;get '/transactions/:id'&lt;/div&gt;&lt;div&gt;delete '/transactions/:id'&lt;/div&gt;&lt;/div&gt;" style="rounded=0;whiteSpace=wrap;html=1;" parent="1" vertex="1">
                    <mxGeometry x="570" y="523" width="250" height="240" as="geometry"/>
                </mxCell>
                <mxCell id="15" value="&lt;font style=&quot;font-size: 28px&quot;&gt;Views&lt;/font&gt;" style="text;html=1;align=left;verticalAlign=middle;resizable=0;points=[];autosize=1;" parent="1" vertex="1">
                    <mxGeometry x="9" y="798" width="90" height="20" as="geometry"/>
                </mxCell>
                <mxCell id="16" value="Users&lt;br&gt;________________________________&lt;br&gt;&lt;div&gt;&lt;br&gt;&lt;/div&gt;&lt;div&gt;users/index.erb&lt;/div&gt;users&lt;span&gt;/show.erb&lt;/span&gt;&lt;br&gt;&lt;div&gt;users/edit.erb&lt;/div&gt;&lt;div&gt;users/new.erb&lt;/div&gt;" style="rounded=0;whiteSpace=wrap;html=1;align=center;" parent="1" vertex="1">
                    <mxGeometry x="9" y="831" width="250" height="240" as="geometry"/>
                </mxCell>
                <mxCell id="17" value="&lt;span&gt;Wallet&lt;/span&gt;&lt;br&gt;________________________________&lt;br&gt;&lt;span&gt;&lt;br&gt;&lt;/span&gt;&lt;div&gt;wallets/index.erb&lt;/div&gt;wallets&lt;span&gt;/show.erb&lt;/span&gt;&lt;br&gt;wallets&lt;span&gt;/edit.erb&lt;/span&gt;&lt;br&gt;wallets&lt;span&gt;/new.erb&lt;/span&gt;" style="rounded=0;whiteSpace=wrap;html=1;" parent="1" vertex="1">
                    <mxGeometry x="289" y="831" width="251" height="240" as="geometry"/>
                </mxCell>
                <mxCell id="18" value="&lt;span&gt;Transaction&lt;/span&gt;&lt;br&gt;&lt;div&gt;________________________________&lt;br&gt;&lt;div&gt;&lt;br&gt;&lt;/div&gt;&lt;div&gt;transactions&lt;span&gt;/show.erb&lt;/span&gt;&lt;br&gt;&lt;/div&gt;&lt;/div&gt;" style="rounded=0;whiteSpace=wrap;html=1;" parent="1" vertex="1">
                    <mxGeometry x="570" y="831" width="250" height="240" as="geometry"/>
                </mxCell>
            </root>
        </mxGraphModel>
    </diagram>
</mxfile>